<?xml version="1.0" encoding="UTF-8" standalone="no"?>
<!-- Created with Inkscape (http://www.inkscape.org/) -->

<svg
   xmlns:osb="http://www.openswatchbook.org/uri/2009/osb"
   xmlns:dc="http://purl.org/dc/elements/1.1/"
   xmlns:cc="http://creativecommons.org/ns#"
   xmlns:rdf="http://www.w3.org/1999/02/22-rdf-syntax-ns#"
   xmlns:svg="http://www.w3.org/2000/svg"
   xmlns="http://www.w3.org/2000/svg"
   xmlns:xlink="http://www.w3.org/1999/xlink"
   xmlns:sodipodi="http://sodipodi.sourceforge.net/DTD/sodipodi-0.dtd"
   xmlns:inkscape="http://www.inkscape.org/namespaces/inkscape"
   width="160"
   height="160"
   id="svg2"
   version="1.1"
   inkscape:version="0.48.1 r9760"
   sodipodi:docname="crimsonfu-logo.svg">
  <defs
     id="defs4">
    <linearGradient
       id="linearGradient5342"
       osb:paint="solid">
      <stop
         style="stop-color:#000000;stop-opacity:1;"
         offset="0"
         id="stop5344" />
    </linearGradient>
    <linearGradient
       id="linearGradient5308"
       osb:paint="solid">
      <stop
         style="stop-color:#dc143a;stop-opacity:1;"
         offset="0"
         id="stop5310" />
    </linearGradient>
    <linearGradient
       inkscape:collect="always"
       xlink:href="#linearGradient5342"
       id="linearGradient5346"
       x1="217.86478"
       y1="497.15439"
       x2="284.83932"
       y2="497.15439"
       gradientUnits="userSpaceOnUse"
       gradientTransform="translate(10.714286,-0.71428572)" />
    <linearGradient
       inkscape:collect="always"
       xlink:href="#linearGradient5342"
       id="linearGradient5348"
       x1="202.54863"
       y1="511.33316"
       x2="277.87177"
       y2="511.33316"
       gradientUnits="userSpaceOnUse"
       gradientTransform="translate(7.1428572,-6.4285714)" />
    <linearGradient
       inkscape:collect="always"
       xlink:href="#linearGradient5342"
       id="linearGradient5350"
       x1="294.60071"
       y1="518.32703"
       x2="356.79626"
       y2="518.32703"
       gradientUnits="userSpaceOnUse"
       gradientTransform="translate(-3.5714286,2.8571429)" />
  </defs>
  <sodipodi:namedview
     id="base"
     pagecolor="#ffffff"
     bordercolor="#666666"
     borderopacity="1.0"
     inkscape:pageopacity="0.0"
     inkscape:pageshadow="2"
     inkscape:zoom="1.4"
     inkscape:cx="43.165658"
     inkscape:cy="43.858452"
     inkscape:document-units="px"
     inkscape:current-layer="layer1"
     showgrid="false"
     inkscape:window-width="1224"
     inkscape:window-height="683"
     inkscape:window-x="1"
     inkscape:window-y="47"
     inkscape:window-maximized="0"
     fit-margin-top="0"
     fit-margin-left="0"
     fit-margin-right="0"
     fit-margin-bottom="0" />
  <metadata
     id="metadata7">
    <rdf:RDF>
      <cc:Work
         rdf:about="">
        <dc:format>image/svg+xml</dc:format>
        <dc:type
           rdf:resource="http://purl.org/dc/dcmitype/StillImage" />
      </cc:Work>
    </rdf:RDF>
  </metadata>
  <g
     inkscape:label="Layer 1"
     inkscape:groupmode="layer"
     id="layer1"
     transform="translate(-202.54863,-416.48407)">
    <path
       style="fill:#dc143c;fill-opacity:1;stroke:url(#linearGradient5346);stroke-width:8;stroke-miterlimit:4;stroke-dasharray:none"
       id="path3005"
       d="m 283.76527,437.85966 c -0.63103,-1.97324 -1.32408,-3.97179 -3.29377,-4.96849 -0.47723,-0.24149 -0.99611,-0.38989 -1.49417,-0.58483 -4.57739,-0.94197 -9.45342,-0.23411 -13.72987,1.6295 -1.11009,0.48376 -2.14523,1.12396 -3.21785,1.68594 -2.4144,1.82835 -4.04609,2.79748 -5.88189,5.31042 -0.25315,0.34653 -0.0957,0.8698 -0.28281,1.25601 -0.70257,1.45012 -1.69219,2.7516 -2.36765,4.21454 -2.05952,4.46058 -2.22317,6.29131 -3.3845,11.16283 -2.05277,13.10212 -0.47606,26.40613 2.78979,39.1808 0.71405,2.79307 1.60437,5.53809 2.40655,8.30713 4.58958,14.38835 11.62147,27.78327 18.16369,41.33778 1.3792,3.06431 3.17599,6.71684 4.09063,9.99817 0.4071,1.4605 0.62006,2.97037 0.83488,4.47124 0.33587,2.34654 0.50884,4.55875 0.18259,6.9084 -0.10844,0.78095 -0.38669,1.52875 -0.58003,2.29313 -0.40676,0.4913 -0.81352,0.9826 -1.22027,1.4739 0.0159,0.0562 -0.77931,0.28093 -0.7952,0.2247 l 0,0 c -0.51512,-0.11016 -1.03023,-0.22032 -1.54535,-0.33048 -6.14781,-4.25281 -10.40137,-10.62135 -14.27685,-16.88384 -8.5592,-13.66175 -16.69137,-27.6901 -21.59525,-43.14877 -2.31951,-8.02607 -3.34824,-10.66421 -4.67147,-18.9516 -1.93342,-12.10899 -1.83863,-24.45812 0.9518,-36.42444 1.93789,-6.31992 2.23696,-8.45372 5.34244,-14.20806 4.32622,-8.01634 11.06112,-14.43417 19.40989,-18.06008 1.55274,-0.51698 3.07495,-1.13677 4.65822,-1.55093 5.43609,-1.42201 11.42974,-1.57479 16.79593,0.25486 1.16324,0.39662 2.2454,0.99994 3.3681,1.49991 0.95131,0.67077 1.98719,1.23534 2.85393,2.0123 3.2721,2.9332 4.96705,7.29514 4.01207,11.60289 0.0203,0.532 -7.50329,0.81907 -7.52358,0.28707 z"
       inkscape:connector-curvature="0" />
    <path
       style="fill:#dc143c;fill-opacity:1;stroke:url(#linearGradient5348);stroke-width:8;stroke-miterlimit:4;stroke-dasharray:none"
       id="path3009"
       d="m 213.76848,516.77106 c 9.11337,-9.89112 21.75181,-15.35801 33.67708,-21.00378 6.90603,-2.99354 13.337,-5.88968 20.40615,-8.50754 3.53021,-1.30731 7.1278,-2.4249 10.6917,-3.63735 0.70645,-0.16545 3.04631,9.82529 2.33986,9.99075 l 0,0 c -9.77742,5.55542 -19.64049,10.9358 -29.58082,16.19547 -2.91397,1.57552 -5.83473,3.13854 -8.74191,4.72655 -2.55297,1.39453 -5.05617,2.88135 -7.63837,4.22097 -2.12059,1.10014 -4.29792,2.08782 -6.4641,3.09524 -2.43273,1.1314 -5.98159,2.73323 -8.63805,3.68382 -0.72039,0.25778 -1.46804,0.43188 -2.20207,0.64782 -0.66552,0.2722 -4.515,-9.13975 -3.84947,-9.41195 z"
       inkscape:connector-curvature="0" />
    <path
       style="fill:#dc143c;fill-opacity:1;stroke:url(#linearGradient5350);stroke-width:8;stroke-miterlimit:4;stroke-dasharray:none"
       id="path3013"
       d="m 298.16506,502.28251 c -0.90337,-0.73783 -1.61478,-1.67706 -2.13097,-2.72119 -0.068,-0.13761 -0.28494,-0.386 -0.14069,-0.43851 7.37206,-2.68331 5.85758,-4.10065 7.9924,-0.72755 4.1936,8.57457 7.29252,17.64224 10.61552,26.57789 2.07554,5.1165 4.01031,10.34807 6.86012,15.10541 1.03573,1.72899 2.59189,4.07293 4.35175,5.29535 0.47393,0.3292 1.08733,0.38683 1.63099,0.58024 0.57773,-0.35166 2.05526,-1.01311 1.73253,-2.06137 -0.12178,-0.39554 -1.28335,0.27158 -1.23373,-0.13929 0.14179,-1.17414 1.16962,-2.06194 1.63105,-3.15088 1.65751,-3.9115 1.99222,-5.98112 3.07187,-10.22472 0.40779,-2.20894 0.82619,-4.41596 1.22338,-6.62684 0.96228,-5.35631 1.70504,-9.58246 2.46166,-14.99248 1.58471,-11.33128 0.43892,-4.195 1.75734,-15.3612 0.2818,-2.38673 0.64152,-4.76362 0.96228,-7.14543 -0.0802,-0.44213 6.17248,-1.57684 6.25272,-1.13471 l 0,0 c 0.62189,2.30848 1.37713,4.5851 1.86568,6.92543 0.52903,2.53424 0.86996,5.10613 1.18244,7.67608 0.98071,8.06564 1.40609,16.38533 0.38667,24.47366 -0.32553,2.58285 -0.96782,5.11581 -1.45173,7.67372 -0.6888,2.33219 -1.24064,4.70929 -2.0664,6.99659 -2.92108,8.09118 -8.46106,17.41529 -17.98372,18.4453 -1.71873,0.1859 -3.44647,-0.27606 -5.1697,-0.41409 -1.52858,-0.66885 -3.15904,-1.14142 -4.58575,-2.00653 -8.3893,-5.08706 -12.53127,-15.70681 -15.77379,-24.41643 -0.64606,-2.04731 -1.34267,-4.07934 -1.93818,-6.14192 -2.16324,-7.49257 -3.70016,-15.22228 -4.36877,-22.99289 -0.01,-0.74989 -0.58436,-1.74533 -0.0293,-2.24968 2.94953,-2.6801 5.72068,-6.18782 7.35183,-3.22043 0.6161,1.12081 0.87111,2.39568 0.86757,3.66315 0.19469,0.37653 -5.13036,3.12985 -5.32505,2.75332 z"
       inkscape:connector-curvature="0" />
  </g>
</svg>
